STARTFONT 2.1
COMMENT METAFONT output 1995.04.12:1802
COMMENT fontid=MSAM V2.2
COMMENT codingscheme=TeX math symbols
COMMENT fontfacebyte
COMMENT jobname=msam10
COMMENT mag=0.6
COMMENT mode=cx
COMMENT pixels_per_inch=300
COMMENT blacker=0
COMMENT fillin=0.2
COMMENT o_correction=0.6
COMMENT Checksum 97b3eecd
COMMENT 
COMMENT This file is made by pktobdf using the above specified pk file.
COMMENT 
FONT -metafont-msam10-medium-r-normal--25-240-75-75-P-153-MetaFont-FONTSPECIFIC
SIZE 25 75 75
FONTBOUNDINGBOX 33 38 -1 -12
STARTPROPERTIES 21
FONT_ASCENT 20
FONT_DESCENT 7
FOUNDRY "metafont"
FAMILY_NAME "msam10"
WEIGHT_NAME "medium"
SLANT "r"
SETWIDTH_NAME "normal"
ADD_STYLE_NAME ""
PIXEL_SIZE 25
POINT_SIZE 240
RESOLUTOIN_X 75
RESOLUTOIN_Y 75
SPACING "P"
AVERAGE_WIDTH 153
CHARSET_REGISTRY "MetaFont"
CHARSET_ENCODING "FONTSPECIFIC"
AVG_CAPITAL_WIDTH 28
AVG_LOWERCASE_WIDTH 32
COPYRIGHT "MetaFont (public domain)"
DEVICE_FONT_NAME "msam10"
FULLNAME "msam10"
ENDPROPERTIES
CHARS 128
STARTCHAR Gamma
ENCODING 0
SWIDTH 757 0
DWIDTH 19 0
BBX 16 16 1 0
BITMAP
ffff
8001
8001
8001
8001
8001
81c1
81c1
81c1
8001
8001
8001
8001
8001
8001
ffff
ENDCHAR
STARTCHAR Delta
ENCODING 1
SWIDTH 757 0
DWIDTH 19 0
BBX 16 16 1 0
BITMAP
ffff
8081
8081
8081
8081
8081
8081
ffff
8081
8081
8081
8081
8081
8081
8081
ffff
ENDCHAR
STARTCHAR Theta
ENCODING 2
SWIDTH 757 0
DWIDTH 19 0
BBX 16 16 1 0
BITMAP
ffff
c003
a005
9009
8811
8421
8241
8181
8181
8241
8421
8811
9009
a005
c003
ffff
ENDCHAR
STARTCHAR Lamdba
ENCODING 3
SWIDTH 757 0
DWIDTH 19 0
BBX 16 16 1 0
BITMAP
ffff
8001
8001
8001
8001
8001
8001
8001
8001
8001
8001
8001
8001
8001
8001
ffff
ENDCHAR
STARTCHAR Xi
ENCODING 4
SWIDTH 757 0
DWIDTH 19 0
BBX 16 16 1 0
BITMAP
ffff
ffff
ffff
ffff
ffff
ffff
ffff
ffff
ffff
ffff
ffff
ffff
ffff
ffff
ffff
ffff
ENDCHAR
STARTCHAR Pi
ENCODING 5
SWIDTH 279 0
DWIDTH 7 0
BBX 4 4 1 0
BITMAP
f0
f0
f0
f0
ENDCHAR
STARTCHAR Sigma
ENCODING 6
SWIDTH 678 0
DWIDTH 17 0
BBX 14 20 1 -3
BITMAP
0300
0480
0480
0840
1020
1020
2010
4008
4008
8004
8004
4008
2010
2010
1020
0840
0840
0480
0300
0300
ENDCHAR
STARTCHAR Upsilon
ENCODING 7
SWIDTH 678 0
DWIDTH 17 0
BBX 14 20 1 -3
BITMAP
0300
0780
0780
0fc0
1fe0
1fe0
3ff0
7ff8
7ff8
fffc
fffc
7ff8
3ff0
3ff0
1fe0
0fc0
0fc0
0780
0300
0300
ENDCHAR
STARTCHAR Phi
ENCODING 8
SWIDTH 757 0
DWIDTH 19 0
BBX 16 19 1 -2
BITMAP
1000
1800
0700
0e10
1408
2404
4002
4002
8001
8001
8001
8001
8001
4002
4002
2004
1008
0c30
03c0
ENDCHAR
STARTCHAR Psi
ENCODING 9
SWIDTH 757 0
DWIDTH 19 0
BBX 16 19 1 -2
BITMAP
0008
0018
00e0
0870
1028
2024
4002
4002
8001
8001
8001
8001
8001
4002
4002
2004
1008
0c30
03c0
ENDCHAR
STARTCHAR Omega
ENCODING 10
SWIDTH 997 0
DWIDTH 25 0
BBX 22 13 1 0
BITMAP
000020
000020
000010
fffff8
000000
000000
000000
000000
fffffc
400000
200000
100000
100000
ENDCHAR
STARTCHAR arrowup
ENCODING 11
SWIDTH 997 0
DWIDTH 25 0
BBX 22 13 1 0
BITMAP
100000
100000
200000
7ffffc
000000
000000
000000
000000
fffffc
000008
000010
000020
000020
ENDCHAR
STARTCHAR arrowdown
ENCODING 12
SWIDTH 757 0
DWIDTH 19 0
BBX 16 16 1 0
BITMAP
ffff
8001
8001
8001
8001
8001
8001
ffff
8001
8001
8001
8001
8001
8001
8001
ffff
ENDCHAR
STARTCHAR quotesingle
ENCODING 13
SWIDTH 717 0
DWIDTH 18 0
BBX 15 17 1 0
BITMAP
8400
8400
8400
8400
8400
8400
8400
8400
87fe
8400
8400
8400
8400
8400
8400
8400
8400
ENDCHAR
STARTCHAR exclamdown
ENCODING 14
SWIDTH 877 0
DWIDTH 22 0
BBX 19 17 1 0
BITMAP
842000
842000
842000
842000
842000
842000
842000
842000
843fe0
842000
842000
842000
842000
842000
842000
842000
842000
ENDCHAR
STARTCHAR questiondown
ENCODING 15
SWIDTH 598 0
DWIDTH 15 0
BBX 12 17 1 0
BITMAP
8000
8000
8000
8000
8000
fff0
8000
8000
8000
8000
fff0
8000
8000
8000
8000
8000
8000
ENDCHAR
STARTCHAR dotlessi
ENCODING 16
SWIDTH 997 0
DWIDTH 25 0
BBX 22 9 1 2
BITMAP
000440
000420
000230
000118
fffffc
000118
000230
000420
000440
ENDCHAR
STARTCHAR dotlessj
ENCODING 17
SWIDTH 997 0
DWIDTH 25 0
BBX 22 9 1 2
BITMAP
088000
108000
310000
620000
fffffc
620000
310000
108000
088000
ENDCHAR
STARTCHAR grave
ENCODING 18
SWIDTH 997 0
DWIDTH 25 0
BBX 22 17 1 -2
BITMAP
080000
100000
200000
600000
fffffc
200000
100000
100000
080000
100000
100000
200000
fffffc
600000
200000
100000
080000
ENDCHAR
STARTCHAR acute
ENCODING 19
SWIDTH 997 0
DWIDTH 25 0
BBX 22 17 1 -2
BITMAP
000040
000020
000010
000018
fffffc
000010
000020
000020
000040
000020
000020
000010
fffffc
000018
000010
000020
000040
ENDCHAR
STARTCHAR caron
ENCODING 20
SWIDTH 837 0
DWIDTH 21 0
BBX 17 22 2 -5
BITMAP
080800
180c00
3e3e00
cb6980
080800
080800
080800
080800
080800
080800
080800
080800
080800
080800
080800
080800
080800
080800
080800
080800
080800
080800
ENDCHAR
STARTCHAR breve
ENCODING 21
SWIDTH 837 0
DWIDTH 21 0
BBX 17 22 2 -5
BITMAP
080800
080800
080800
080800
080800
080800
080800
080800
080800
080800
080800
080800
080800
080800
080800
080800
080800
080800
cb6980
3e3e00
180c00
080800
ENDCHAR
STARTCHAR macron
ENCODING 22
SWIDTH 398 0
DWIDTH 10 0
BBX 5 22 4 -5
BITMAP
80
80
e0
b0
88
80
80
80
80
80
80
80
80
80
80
80
80
80
80
80
80
80
ENDCHAR
STARTCHAR ring
ENCODING 23
SWIDTH 398 0
DWIDTH 10 0
BBX 5 22 4 -5
BITMAP
80
80
80
80
80
80
80
80
80
80
80
80
80
80
80
80
80
88
b0
e0
80
80
ENDCHAR
STARTCHAR cedilla
ENCODING 24
SWIDTH 398 0
DWIDTH 10 0
BBX 5 22 0 -5
BITMAP
08
08
38
68
88
08
08
08
08
08
08
08
08
08
08
08
08
08
08
08
08
08
ENDCHAR
STARTCHAR germandbls
ENCODING 25
SWIDTH 398 0
DWIDTH 10 0
BBX 5 22 0 -5
BITMAP
08
08
08
08
08
08
08
08
08
08
08
08
08
08
08
08
08
88
68
38
08
08
ENDCHAR
STARTCHAR ae
ENCODING 26
SWIDTH 1116 0
DWIDTH 28 0
BBX 25 9 1 2
BITMAP
80000800
40000400
60000400
30000200
1fffff80
30000200
60000400
40000400
80000800
ENDCHAR
STARTCHAR oe
ENCODING 27
SWIDTH 1116 0
DWIDTH 28 0
BBX 25 9 1 2
BITMAP
08000080
10000100
10000300
20000600
fffffc00
20000600
10000300
10000100
08000080
ENDCHAR
STARTCHAR oslash
ENCODING 28
SWIDTH 997 0
DWIDTH 25 0
BBX 22 16 1 1
BITMAP
100000
100000
200000
7ffffc
400000
200000
100000
100000
000020
000020
000010
000008
fffff8
000010
000020
000020
ENDCHAR
STARTCHAR AE
ENCODING 29
SWIDTH 997 0
DWIDTH 25 0
BBX 22 16 1 1
BITMAP
000020
000020
000010
fffff8
000008
000010
000020
000020
100000
100000
200000
400000
7ffffc
200000
100000
100000
ENDCHAR
STARTCHAR OE
ENCODING 30
SWIDTH 478 0
DWIDTH 12 0
BBX 9 18 1 0
BITMAP
0800
1000
2000
6000
ff80
2080
1080
1080
0080
0080
0080
0080
0080
0080
0080
0080
0080
0080
ENDCHAR
STARTCHAR Oslash
ENCODING 31
SWIDTH 478 0
DWIDTH 12 0
BBX 9 18 1 0
BITMAP
0800
0400
0200
0300
ff80
8200
8400
8400
8000
8000
8000
8000
8000
8000
8000
8000
8000
8000
ENDCHAR
STARTCHAR tilde
ENCODING 32
SWIDTH 997 0
DWIDTH 25 0
BBX 21 9 2 2
BITMAP
000080
000040
201060
502830
8847f8
048030
030060
000040
000080
ENDCHAR
STARTCHAR exclam
ENCODING 33
SWIDTH 1396 0
DWIDTH 35 0
BBX 32 9 1 2
BITMAP
08000010
10000008
3081810c
61418286
fe22447f
60142806
3008100c
10000008
08000010
ENDCHAR
STARTCHAR quotedblright
ENCODING 34
SWIDTH 997 0
DWIDTH 25 0
BBX 22 14 1 0
BITMAP
0001f8
000204
000204
080204
100204
300204
60020c
fffff0
600200
300200
100200
080200
000200
000200
ENDCHAR
STARTCHAR numbersign
ENCODING 35
SWIDTH 997 0
DWIDTH 25 0
BBX 22 14 1 0
BITMAP
7e0000
810000
810000
810040
810020
810030
c10018
3ffffc
008018
008030
008020
008040
008000
008000
ENDCHAR
STARTCHAR dollar
ENCODING 36
SWIDTH 757 0
DWIDTH 19 0
BBX 16 15 1 3
BITMAP
03c0
0420
0420
0420
03c0
0000
0000
0000
ffff
0000
0000
0000
0000
0000
ffff
ENDCHAR
STARTCHAR percent
ENCODING 37
SWIDTH 757 0
DWIDTH 19 0
BBX 16 25 1 -7
BITMAP
4000
4000
2000
2000
1000
0c00
0380
007e
0380
0c00
1000
2000
2000
4000
4000
0000
0000
0000
0000
1c01
2201
4101
8082
8044
8038
ENDCHAR
STARTCHAR ampersand
ENCODING 38
SWIDTH 757 0
DWIDTH 19 0
BBX 16 25 1 -7
BITMAP
4000
3000
0c00
0300
00c0
0030
000c
0002
000c
0030
00c0
0300
0c00
3000
4000
0000
0000
0000
0000
1c01
2201
4101
8082
8044
8038
ENDCHAR
STARTCHAR quoteright
ENCODING 39
SWIDTH 757 0
DWIDTH 19 0
BBX 16 26 1 -7
BITMAP
6000
1800
0600
0180
0060
0018
0006
0018
0060
0180
0600
1800
6000
0000
0000
3c01
4201
8181
8042
803c
0000
3c01
4201
8181
8042
803c
ENDCHAR
STARTCHAR parenleft
ENCODING 40
SWIDTH 1116 0
DWIDTH 28 0
BBX 25 7 1 3
BITMAP
00001e00
00002100
00004080
ffffc080
00004080
00002100
00001e00
ENDCHAR
STARTCHAR parenright
ENCODING 41
SWIDTH 678 0
DWIDTH 17 0
BBX 14 13 1 -1
BITMAP
0300
0300
0300
0000
0000
0000
0000
0000
0000
0000
0000
c00c
c00c
ENDCHAR
STARTCHAR asterisk
ENCODING 42
SWIDTH 678 0
DWIDTH 17 0
BBX 14 13 1 -1
BITMAP
c00c
c00c
c00c
0000
0000
0000
0000
0000
0000
0000
0000
0300
0300
ENDCHAR
STARTCHAR plus
ENCODING 43
SWIDTH 757 0
DWIDTH 19 0
BBX 16 19 1 -3
BITMAP
0180
03c0
03c0
0180
0000
0000
ffff
0000
0000
0000
0000
0000
ffff
0000
0000
0180
03c0
03c0
0180
ENDCHAR
STARTCHAR comma
ENCODING 44
SWIDTH 797 0
DWIDTH 20 0
BBX 17 19 1 3
BITMAP
008000
014000
014000
022000
022000
041000
041000
080800
1ffc00
000000
000000
000000
ffff80
000000
000000
000000
000000
000000
ffff80
ENDCHAR
STARTCHAR hyphen
ENCODING 45
SWIDTH 757 0
DWIDTH 19 0
BBX 16 25 1 -7
BITMAP
0002
0002
0004
0004
0008
0030
01c0
7e00
01c0
0030
0008
0004
0004
0002
0002
0000
0000
0000
0000
1c01
2201
4101
8082
8044
8038
ENDCHAR
STARTCHAR period
ENCODING 46
SWIDTH 757 0
DWIDTH 19 0
BBX 16 25 1 -7
BITMAP
0002
000c
0030
00c0
0300
0c00
3000
4000
3000
0c00
0300
00c0
0030
000c
0002
0000
0000
0000
0000
1c01
2201
4101
8082
8044
8038
ENDCHAR
STARTCHAR slash
ENCODING 47
SWIDTH 757 0
DWIDTH 19 0
BBX 16 26 1 -7
BITMAP
0006
0018
0060
0180
0600
1800
6000
1800
0600
0180
0060
0018
0006
0000
0000
3c01
4201
8181
8042
803c
0000
3c01
4201
8181
8042
803c
ENDCHAR
STARTCHAR 0
ENCODING 48
SWIDTH 757 0
DWIDTH 19 0
BBX 14 20 2 -4
BITMAP
0004
0018
0060
0180
0600
1804
6018
8060
0180
0600
1800
6000
8000
6000
1800
0600
0180
0060
0018
0004
ENDCHAR
STARTCHAR 1
ENCODING 49
SWIDTH 757 0
DWIDTH 19 0
BBX 14 20 2 -4
BITMAP
8000
6000
1800
0600
0180
8060
6018
1804
0600
0180
0060
0018
0004
0018
0060
0180
0600
1800
6000
8000
ENDCHAR
STARTCHAR 2
ENCODING 50
SWIDTH 757 0
DWIDTH 19 0
BBX 14 19 2 0
BITMAP
0020
0020
0020
0040
0084
0104
0e08
f008
0010
0060
0380
fc00
0380
0060
0010
0008
0008
0004
0004
ENDCHAR
STARTCHAR 3
ENCODING 51
SWIDTH 757 0
DWIDTH 19 0
BBX 14 19 2 0
BITMAP
1000
1000
1000
0800
8400
8200
41c0
403c
2000
1800
0700
00fc
0700
1800
2000
4000
4000
8000
8000
ENDCHAR
STARTCHAR 4
ENCODING 52
SWIDTH 757 0
DWIDTH 19 0
BBX 14 19 2 -4
BITMAP
0004
0004
0008
0008
0010
0060
0380
fc00
0380
0060
0010
f008
0e08
0104
0084
0040
0020
0020
0020
ENDCHAR
STARTCHAR 5
ENCODING 53
SWIDTH 757 0
DWIDTH 19 0
BBX 14 24 2 -5
BITMAP
0004
0018
0060
0180
0600
1800
6000
8000
6000
1800
0600
0180
0060
0018
0004
0000
0000
0000
fffc
0000
0000
0000
0000
fffc
ENDCHAR
STARTCHAR 6
ENCODING 54
SWIDTH 757 0
DWIDTH 19 0
BBX 14 20 2 -4
BITMAP
0004
0018
0060
0180
0600
1800
6000
8000
6000
1800
0600
0180
8060
6018
1804
0600
0180
0060
0018
0004
ENDCHAR
STARTCHAR 7
ENCODING 55
SWIDTH 757 0
DWIDTH 19 0
BBX 16 24 1 -7
BITMAP
0003
000c
0070
0180
0e00
3000
c000
3000
0e00
0180
0070
c00c
3003
0e00
0180
0070
000c
0003
000c
0070
0180
0e00
3000
c000
ENDCHAR
STARTCHAR 8
ENCODING 56
SWIDTH 279 0
DWIDTH 7 0
BBX 5 13 0 1
BITMAP
40
e0
e0
60
70
70
70
30
30
30
38
18
18
ENDCHAR
STARTCHAR 9
ENCODING 57
SWIDTH 319 0
DWIDTH 8 0
BBX 8 1 2 6
BITMAP
ff
ENDCHAR
STARTCHAR colon
ENCODING 58
SWIDTH 757 0
DWIDTH 19 0
BBX 18 19 0 -3
BITMAP
000080
0001c0
0001c0
000000
000000
000000
7fff80
000000
000000
000000
000000
000000
7fff80
000000
000000
000000
e00000
e00000
400000
ENDCHAR
STARTCHAR semicolon
ENCODING 59
SWIDTH 757 0
DWIDTH 19 0
BBX 18 19 0 -3
BITMAP
400000
e00000
e00000
000000
000000
000000
7fff80
000000
000000
000000
000000
000000
7fff80
000000
000000
000000
0001c0
0001c0
000080
ENDCHAR
STARTCHAR less
ENCODING 60
SWIDTH 757 0
DWIDTH 19 0
BBX 14 19 2 -4
BITMAP
8000
8000
4000
4000
2000
1800
0700
00fc
0700
1800
2000
403c
41c0
8200
8400
0800
1000
1000
1000
ENDCHAR
STARTCHAR equal
ENCODING 61
SWIDTH 757 0
DWIDTH 19 0
BBX 14 24 2 -5
BITMAP
8000
6000
1800
0600
0180
0060
0018
0004
0018
0060
0180
0600
1800
6000
8000
0000
0000
0000
fffc
0000
0000
0000
0000
fffc
ENDCHAR
STARTCHAR greater
ENCODING 62
SWIDTH 757 0
DWIDTH 19 0
BBX 14 20 2 -4
BITMAP
8000
6000
1800
0600
0180
0060
0018
0004
0018
0060
0180
0600
1804
6018
8060
0180
0600
1800
6000
8000
ENDCHAR
STARTCHAR question
ENCODING 63
SWIDTH 757 0
DWIDTH 19 0
BBX 14 24 2 -7
BITMAP
c000
3000
0c00
0300
00c0
0030
000c
0030
00c0
0300
0c00
300c
c030
00c0
0300
0c00
3000
c000
3000
0c00
0300
00c0
0030
000c
ENDCHAR
STARTCHAR at
ENCODING 64
SWIDTH 757 0
DWIDTH 19 0
BBX 15 15 2 -2
BITMAP
fffe
8000
8000
8000
8000
8000
8000
8000
8000
8000
8000
8000
8000
8000
fffe
ENDCHAR
STARTCHAR A
ENCODING 65
SWIDTH 757 0
DWIDTH 19 0
BBX 16 15 1 -2
BITMAP
ffff
0001
0001
0001
0001
0001
0001
0001
0001
0001
0001
0001
0001
0001
7fff
ENDCHAR
STARTCHAR B
ENCODING 66
SWIDTH 757 0
DWIDTH 19 0
BBX 14 15 2 -2
BITMAP
8000
e000
9800
8600
8180
8060
8018
8004
8018
8060
8180
8600
9800
e000
8000
ENDCHAR
STARTCHAR C
ENCODING 67
SWIDTH 757 0
DWIDTH 19 0
BBX 13 15 3 -2
BITMAP
0008
0038
00c8
0308
0c08
1008
6008
8008
6008
1008
0c08
0308
00c8
0038
0008
ENDCHAR
STARTCHAR D
ENCODING 68
SWIDTH 757 0
DWIDTH 19 0
BBX 14 20 2 -4
BITMAP
8000
e000
9800
8600
8180
8060
8018
8004
8018
8060
8180
8600
9800
e000
8000
0000
0000
0000
0000
fffc
ENDCHAR
STARTCHAR E
ENCODING 69
SWIDTH 757 0
DWIDTH 19 0
BBX 13 20 3 -4
BITMAP
0008
0038
00c8
0308
0c08
1008
6008
8008
6008
1008
0c08
0308
00c8
0038
0008
0000
0000
0000
0000
fff8
ENDCHAR
STARTCHAR F
ENCODING 70
SWIDTH 957 0
DWIDTH 24 0
BBX 19 19 2 -2
BITMAP
004000
004000
00e000
00e000
00e000
01f000
01f000
ffffe0
7fffc0
3fff80
0ffe00
07fc00
07fc00
07fc00
0ffe00
0fbe00
0e0e00
1c0700
100100
ENDCHAR
STARTCHAR G
ENCODING 71
SWIDTH 478 0
DWIDTH 12 0
BBX 7 25 2 -6
BITMAP
44
28
10
38
28
6c
44
c6
c6
c6
c6
c6
c6
c6
c6
c6
c6
c6
44
6c
28
38
10
28
44
ENDCHAR
STARTCHAR H
ENCODING 72
SWIDTH 717 0
DWIDTH 18 0
BBX 13 15 2 0
BITMAP
7ff0
fff8
7ff0
7ff0
3fe0
3fe0
3fe0
1fc0
1fc0
0f80
0f80
0700
0700
0700
0200
ENDCHAR
STARTCHAR I
ENCODING 73
SWIDTH 757 0
DWIDTH 19 0
BBX 14 15 2 -2
BITMAP
8000
e000
f800
fe00
ff80
ffe0
fff8
fffc
fff8
ffe0
ff80
fe00
f800
e000
8000
ENDCHAR
STARTCHAR J
ENCODING 74
SWIDTH 757 0
DWIDTH 19 0
BBX 13 15 3 -2
BITMAP
0008
0038
00f8
03f8
0ff8
1ff8
7ff8
fff8
7ff8
1ff8
0ff8
03f8
00f8
0038
0008
ENDCHAR
STARTCHAR K
ENCODING 75
SWIDTH 797 0
DWIDTH 20 0
BBX 9 9 1 2
BITMAP
1800
0c00
0e00
0700
ff80
0700
0e00
0c00
1800
ENDCHAR
STARTCHAR L
ENCODING 76
SWIDTH 837 0
DWIDTH 21 0
BBX 9 9 1 2
BITMAP
0c00
0c00
1800
3000
ff80
3000
1800
0c00
0c00
ENDCHAR
STARTCHAR M
ENCODING 77
SWIDTH 717 0
DWIDTH 18 0
BBX 13 14 2 0
BITMAP
0200
0500
0500
0500
0880
0880
1040
1040
2020
2020
2020
4010
4010
fff8
ENDCHAR
STARTCHAR N
ENCODING 78
SWIDTH 717 0
DWIDTH 18 0
BBX 13 14 2 0
BITMAP
0200
0700
0700
0700
0f80
0f80
1fc0
1fc0
3fe0
3fe0
3fe0
7ff0
7ff0
fff8
ENDCHAR
STARTCHAR O
ENCODING 79
SWIDTH 717 0
DWIDTH 18 0
BBX 13 15 2 0
BITMAP
7ff0
8008
4010
4010
2020
2020
2020
1040
1040
0880
0880
0500
0500
0500
0200
ENDCHAR
STARTCHAR P
ENCODING 80
SWIDTH 757 0
DWIDTH 19 0
BBX 16 7 1 3
BITMAP
ffff
03c0
0420
0420
0420
03c0
ffff
ENDCHAR
STARTCHAR Q
ENCODING 81
SWIDTH 757 0
DWIDTH 19 0
BBX 14 33 2 -11
BITMAP
000c
0030
01c0
0600
1800
6000
e000
1800
0600
01c0
0030
000c
0000
0000
0000
0000
fff8
0000
0000
0000
0000
c000
3000
0c00
0300
00e0
0018
0018
00e0
0300
0c00
3000
c000
ENDCHAR
STARTCHAR R
ENCODING 82
SWIDTH 757 0
DWIDTH 19 0
BBX 13 33 2 -11
BITMAP
c000
3000
0c00
0300
00e0
0018
0018
00e0
0300
0c00
3000
c000
0000
0000
0000
0000
fff8
0000
0000
0000
0000
0008
0030
01c0
0600
1800
6000
e000
1800
0600
01c0
0030
0008
ENDCHAR
STARTCHAR S
ENCODING 83
SWIDTH 757 0
DWIDTH 19 0
BBX 14 38 2 -12
BITMAP
000c
0030
00c0
0700
1800
e000
6000
1800
0700
00c0
0030
000c
0000
0000
0000
0000
fffc
0000
0000
0000
0000
fffc
0000
0000
0000
0000
c000
3000
0c00
0380
0060
0018
001c
0060
0380
0c00
3000
c000
ENDCHAR
STARTCHAR T
ENCODING 84
SWIDTH 757 0
DWIDTH 19 0
BBX 14 38 2 -12
BITMAP
c000
3000
0c00
0380
0060
001c
0018
0060
0380
0c00
3000
c000
0000
0000
0000
0000
fffc
0000
0000
0000
0000
fffc
0000
0000
0000
0000
000c
0030
00c0
0700
1800
6000
e000
1800
0700
00c0
0030
000c
ENDCHAR
STARTCHAR U
ENCODING 85
SWIDTH 757 0
DWIDTH 19 0
BBX 18 17 0 0
BITMAP
fe0fc0
180600
1c0600
0c0400
060800
060800
3fff00
03b000
01a000
00c000
00c000
3fff00
00c000
00c000
00c000
00c000
07f000
ENDCHAR
STARTCHAR V
ENCODING 86
SWIDTH 997 0
DWIDTH 25 0
BBX 21 19 1 -3
BITMAP
000c00
000400
000600
000200
ffff00
000180
0000c0
000060
000030
fffff8
000030
000060
0000c0
000180
ffff00
000200
000600
000400
000c00
ENDCHAR
STARTCHAR W
ENCODING 87
SWIDTH 997 0
DWIDTH 25 0
BBX 21 19 2 -3
BITMAP
018000
010000
030000
020000
07fff8
0c0000
180000
300000
600000
fffff8
600000
300000
180000
0c0000
07fff8
020000
030000
010000
018000
ENDCHAR
STARTCHAR X
ENCODING 88
SWIDTH 837 0
DWIDTH 21 0
BBX 15 17 2 0
BITMAP
0002
0004
0008
0010
0020
0040
00c0
0080
0180
0100
4300
e200
7600
3600
3c00
1c00
1c00
ENDCHAR
STARTCHAR Y
ENCODING 89
SWIDTH 598 0
DWIDTH 15 0
BBX 12 17 1 0
BITMAP
8010
4020
4020
2040
2040
1080
1080
0900
0900
0600
0600
0000
0000
0000
0000
0000
fff0
ENDCHAR
STARTCHAR Z
ENCODING 90
SWIDTH 598 0
DWIDTH 15 0
BBX 12 17 1 0
BITMAP
fff0
0000
0000
0000
0000
0200
0600
0a00
0900
1100
1080
2080
2040
4040
4020
8020
8010
ENDCHAR
STARTCHAR bracketleft
ENCODING 91
SWIDTH 598 0
DWIDTH 15 0
BBX 12 23 1 -3
BITMAP
fff0
0000
0000
0000
0000
fff0
0000
0000
0000
0000
0000
0600
0600
0900
0900
1080
1080
2040
2040
4020
4020
8010
8010
ENDCHAR
STARTCHAR leftdblquote
ENCODING 92
SWIDTH 717 0
DWIDTH 18 0
BBX 15 17 1 0
BITMAP
0002
0004
0008
0010
0020
0020
0040
0080
0100
0200
0400
0800
1000
1000
2000
4000
fffe
ENDCHAR
STARTCHAR bracketright
ENCODING 93
SWIDTH 717 0
DWIDTH 18 0
BBX 15 17 1 0
BITMAP
0002
0004
0008
0010
0020
0040
0080
0080
0100
0200
0500
0900
1080
1080
2040
4040
fffe
ENDCHAR
STARTCHAR circumflex
ENCODING 94
SWIDTH 717 0
DWIDTH 18 0
BBX 15 15 1 -1
BITMAP
0006
0018
0070
0190
0610
1808
6008
8008
6008
1808
0610
0190
0070
0018
0006
ENDCHAR
STARTCHAR dotaccent
ENCODING 95
SWIDTH 757 0
DWIDTH 19 0
BBX 15 11 1 1
BITMAP
0402
1b0c
2090
4060
8060
8020
8060
4060
2090
1b0c
0402
ENDCHAR
STARTCHAR leftquote
ENCODING 96
SWIDTH 757 0
DWIDTH 19 0
BBX 16 5 1 4
BITMAP
8001
4002
2004
1008
0ff0
ENDCHAR
STARTCHAR a
ENCODING 97
SWIDTH 757 0
DWIDTH 19 0
BBX 16 6 1 4
BITMAP
07e0
0810
1008
2004
4002
8001
ENDCHAR
STARTCHAR b
ENCODING 98
SWIDTH 757 0
DWIDTH 19 0
BBX 14 15 2 -1
BITMAP
07fc
1800
2000
4000
43fc
8400
8800
8800
8800
8400
43fc
4000
2000
1800
07fc
ENDCHAR
STARTCHAR c
ENCODING 99
SWIDTH 757 0
DWIDTH 19 0
BBX 14 15 2 -1
BITMAP
ff80
0060
0010
0008
ff08
0084
0044
0044
0044
0084
ff08
0008
0010
0060
ff80
ENDCHAR
STARTCHAR d
ENCODING 100
SWIDTH 678 0
DWIDTH 17 0
BBX 14 15 1 0
BITMAP
8844
8844
8844
8844
8844
8844
8844
8844
8844
8844
8784
8004
4008
3030
0fc0
ENDCHAR
STARTCHAR e
ENCODING 101
SWIDTH 678 0
DWIDTH 17 0
BBX 14 15 1 0
BITMAP
0fc0
3030
4008
8004
8784
8844
8844
8844
8844
8844
8844
8844
8844
8844
8844
ENDCHAR
STARTCHAR f
ENCODING 102
SWIDTH 757 0
DWIDTH 19 0
BBX 14 14 2 0
BITMAP
0100
0100
0100
0100
0100
0100
0300
0280
0280
0480
0440
0840
3020
c01c
ENDCHAR
STARTCHAR g
ENCODING 103
SWIDTH 757 0
DWIDTH 19 0
BBX 14 14 2 0
BITMAP
c01c
3020
0840
0440
0480
0280
0280
0300
0100
0100
0100
0100
0100
0100
ENDCHAR
STARTCHAR h
ENCODING 104
SWIDTH 757 0
DWIDTH 19 0
BBX 16 17 1 0
BITMAP
8000
4000
2000
1000
0800
0400
0200
0100
0100
0180
0240
0420
0810
1008
2004
4002
8001
ENDCHAR
STARTCHAR i
ENCODING 105
SWIDTH 757 0
DWIDTH 19 0
BBX 16 17 1 0
BITMAP
0001
0002
0004
0008
0010
0020
0040
0080
0080
0180
0240
0420
0810
1008
2004
4002
8001
ENDCHAR
STARTCHAR j
ENCODING 106
SWIDTH 757 0
DWIDTH 19 0
BBX 14 25 2 -6
BITMAP
07fc
1800
2000
4000
4000
8000
8000
8000
8000
8000
4000
4000
2000
1800
07fc
0000
0000
0000
0000
fffc
0000
0000
0000
0000
fffc
ENDCHAR
STARTCHAR k
ENCODING 107
SWIDTH 757 0
DWIDTH 19 0
BBX 14 25 2 -6
BITMAP
ff80
0060
0010
0008
0008
0004
0004
0004
0004
0004
0008
0008
0010
0060
ff80
0000
0000
0000
0000
fffc
0000
0000
0000
0000
fffc
ENDCHAR
STARTCHAR l
ENCODING 108
SWIDTH 757 0
DWIDTH 19 0
BBX 16 9 1 3
BITMAP
03c0
0420
fc3f
0000
0000
0000
0000
0000
ffff
ENDCHAR
STARTCHAR m
ENCODING 109
SWIDTH 757 0
DWIDTH 19 0
BBX 16 11 1 1
BITMAP
03c0
0420
fc3f
0000
0000
0000
0000
0000
fc3f
0420
03c0
ENDCHAR
STARTCHAR n
ENCODING 110
SWIDTH 1316 0
DWIDTH 33 0
BBX 30 17 1 -2
BITMAP
00020604
000c1818
00302060
00c0c180
01030200
060c0c00
18103000
6060c000
81810000
6060c000
18103000
060c0c00
01030200
00c0c180
00302060
000c1818
00020604
ENDCHAR
STARTCHAR o
ENCODING 111
SWIDTH 1316 0
DWIDTH 33 0
BBX 30 17 1 -2
BITMAP
81810000
6060c000
18103000
060c0c00
01030200
00c0c180
00302060
000c1818
00020604
000c1818
00302060
00c0c180
01030200
060c0c00
18103000
6060c000
81810000
ENDCHAR
STARTCHAR p
ENCODING 112
SWIDTH 478 0
DWIDTH 12 0
BBX 9 8 1 9
BITMAP
ff80
8000
8000
8000
8000
8000
8000
8000
ENDCHAR
STARTCHAR q
ENCODING 113
SWIDTH 478 0
DWIDTH 12 0
BBX 9 8 1 9
BITMAP
ff80
0080
0080
0080
0080
0080
0080
0080
ENDCHAR
STARTCHAR r
ENCODING 114
SWIDTH 957 0
DWIDTH 24 0
BBX 23 22 0 -4
BITMAP
007c00
038380
040040
080020
100010
2ffc08
230308
430184
430184
430184
830302
83fc02
430604
430304
430304
430324
230328
1fc1d0
100010
0c0060
030180
00fe00
ENDCHAR
STARTCHAR s
ENCODING 115
SWIDTH 877 0
DWIDTH 22 0
BBX 23 22 -1 -4
BITMAP
007c00
038380
040040
080020
100010
203c08
204408
40c404
40c004
40c004
807802
807c02
400e04
400604
400604
408604
208408
10f810
100010
0c0060
030180
00fe00
ENDCHAR
STARTCHAR t
ENCODING 116
SWIDTH 678 0
DWIDTH 17 0
BBX 14 18 1 0
BITMAP
0100
0100
0100
0100
0100
0100
1fe0
6118
8104
8104
8104
8104
8104
8104
8104
8104
8104
8104
ENDCHAR
STARTCHAR u
ENCODING 117
SWIDTH 757 0
DWIDTH 19 0
BBX 16 21 1 -2
BITMAP
0080
01c0
01c0
0000
0080
0080
0080
0080
0080
0080
0080
0080
ffff
0080
0080
0080
0080
0080
0080
0080
0080
ENDCHAR
STARTCHAR v
ENCODING 118
SWIDTH 757 0
DWIDTH 19 0
BBX 16 6 1 3
BITMAP
8038
8044
8082
4101
2201
1c01
ENDCHAR
STARTCHAR w
ENCODING 119
SWIDTH 757 0
DWIDTH 19 0
BBX 16 11 1 1
BITMAP
8038
8044
8082
4101
2201
1c01
0000
0000
0000
0000
ffff
ENDCHAR
STARTCHAR x
ENCODING 120
SWIDTH 478 0
DWIDTH 12 0
BBX 9 8 1 0
BITMAP
8000
8000
8000
8000
8000
8000
8000
ff80
ENDCHAR
STARTCHAR y
ENCODING 121
SWIDTH 478 0
DWIDTH 12 0
BBX 9 8 1 0
BITMAP
0080
0080
0080
0080
0080
0080
0080
ff80
ENDCHAR
STARTCHAR z
ENCODING 122
SWIDTH 837 0
DWIDTH 21 0
BBX 18 17 1 0
BITMAP
0ffc00
07f800
03f000
01e000
c0c0c0
e0c1c0
f0c3c0
fccfc0
ffffc0
fccfc0
f0c3c0
e0c1c0
c0c0c0
01e000
03f000
07f800
0ffc00
ENDCHAR
STARTCHAR endash
ENCODING 123
SWIDTH 478 0
DWIDTH 12 0
BBX 9 21 1 0
BITMAP
1c00
7f00
6300
c180
c180
c180
c100
c000
c000
c000
c000
c000
c000
c000
c100
c180
c180
c180
6300
7f00
1c00
ENDCHAR
STARTCHAR emdash
ENCODING 124
SWIDTH 558 0
DWIDTH 14 0
BBX 9 17 2 -6
BITMAP
ff80
ff80
0c00
0c00
0c00
0c00
0c00
0c00
0c00
0c00
0c00
0c00
0c00
0c00
0c00
0c00
0800
ENDCHAR
STARTCHAR quotedbl
ENCODING 125
SWIDTH 757 0
DWIDTH 19 0
BBX 16 17 1 -2
BITMAP
03c0
0c30
1008
2004
4002
43c2
8421
8421
8421
8421
83c1
4002
4002
2004
1008
0c30
03c0
ENDCHAR
STARTCHAR hungarumlaut
ENCODING 126
SWIDTH 757 0
DWIDTH 19 0
BBX 16 17 1 -2
BITMAP
03c0
0c30
1008
2184
4182
599a
9db9
87e1
83c1
87e1
9db9
599a
4182
2184
1008
0c30
03c0
ENDCHAR
STARTCHAR dieresis
ENCODING 127
SWIDTH 757 0
DWIDTH 19 0
BBX 16 17 1 -2
BITMAP
03c0
0c30
1008
2004
4002
4002
8001
8001
8ff1
8001
8001
4002
4002
2004
1008
0c30
03c0
ENDCHAR
ENDFONT
